<?xml version="1.0" standalone="no"?>
<!DOCTYPE svg PUBLIC "-//W3C//DTD SVG 20010904//EN"
 "http://www.w3.org/TR/2001/REC-SVG-20010904/DTD/svg10.dtd">
<svg version="1.0" xmlns="http://www.w3.org/2000/svg"
 width="225.000000pt" height="225.000000pt" viewBox="0 0 225.000000 225.000000"
 preserveAspectRatio="xMidYMid meet">
<g transform="translate(0.000000,225.000000) scale(0.100000,-0.100000)"
fill="#000000" stroke="none">
<path d="M921 2095 c-131 -29 -251 -80 -361 -155 -203 -138 -348 -354 -406
-605 -25 -108 -25 -309 0 -420 82 -360 339 -635 693 -741 119 -36 338 -45 463
-20 242 49 456 182 602 375 64 85 141 243 170 351 32 123 32 367 0 490 -98
368 -393 648 -765 724 -94 20 -307 20 -396 1z m289 -45 c390 -41 702 -304 812
-687 19 -66 23 -102 23 -238 0 -184 -16 -258 -85 -402 -218 -451 -749 -648
-1210 -450 -100 43 -179 97 -269 182 -129 122 -215 269 -262 445 -33 122 -33
328 0 450 48 180 134 325 271 453 152 143 330 225 535 247 39 4 73 8 76 9 4 0
53 -4 109 -9z"/>
<path d="M1471 1380 c-95 -20 -178 -96 -202 -184 -6 -23 -9 -75 -7 -117 7
-122 67 -203 174 -235 133 -40 282 6 349 108 38 57 28 74 -27 43 -123 -68
-256 -29 -288 83 -18 65 -27 62 170 62 201 0 191 -5 168 74 -16 54 -99 138
-153 153 -60 18 -135 23 -184 13z m116 -52 c24 -27 43 -80 43 -119 l0 -29 -85
0 -85 0 0 34 c0 106 74 172 127 114z"/>
<path d="M417 1337 c19 -22 59 -111 117 -263 l88 -229 51 1 52 1 55 146 c30
81 58 143 61 139 3 -4 27 -65 54 -137 26 -71 50 -134 53 -140 4 -5 27 -10 52
-10 25 0 48 5 52 10 3 6 36 89 73 185 75 197 95 239 137 293 l30 37 -106 0
c-58 0 -106 -4 -106 -8 0 -5 11 -19 25 -32 13 -12 30 -38 36 -57 10 -31 7 -46
-26 -139 -20 -57 -40 -104 -44 -104 -7 0 -92 267 -91 287 0 7 9 18 20 25 11 7
20 16 20 20 0 5 -63 8 -140 8 -129 0 -160 -6 -129 -26 15 -9 59 -105 59 -129
0 -11 -14 -60 -32 -110 l-32 -90 -43 130 c-46 142 -51 176 -28 195 8 7 15 16
15 21 0 5 -68 9 -151 9 l-151 0 29 -33z"/>
</g>
</svg>
